<svg version="1.1" id="Layer_1" xmlns="http://www.w3.org/2000/svg" xmlns:xlink="http://www.w3.org/1999/xlink" x="0px" y="0px"
	 width="100%" viewBox="0 0 496 496" enable-background="new 0 0 496 496" xml:space="preserve">
<path fill="#000000" opacity="1.000000" stroke="none" 
	d="
M391.927307,262.240479 
	C403.556702,264.553406 414.779602,266.849762 426.023773,269.036652 
	C429.389832,269.691315 430.823303,271.042389 429.918610,274.803772 
	C428.134705,282.220673 426.688202,289.724854 425.319916,297.232635 
	C424.741516,300.406555 423.001373,300.760925 420.313110,300.350861 
	C417.346313,299.898285 416.303955,298.326569 416.869873,295.496124 
	C417.968689,290.000275 419.072083,284.505310 420.151184,279.121674 
	C413.389099,276.271179 412.666992,276.635498 411.360931,282.976715 
	C410.758545,285.901398 409.901855,288.785522 409.488464,291.733978 
	C409.089447,294.579926 407.863098,295.366730 405.090240,294.692993 
	C402.581818,294.083466 400.657501,293.645599 401.494202,290.224670 
	C402.632385,285.571167 403.344666,280.813477 404.220795,276.199493 
	C402.106750,273.976746 399.481720,274.367157 397.163635,273.838013 
	C392.048828,280.289307 396.750610,290.860565 387.567596,296.152252 
	C389.199463,299.334839 391.045441,303.022675 392.976227,306.665527 
	C394.026855,308.647827 395.607239,308.617920 397.661285,308.094910 
	C402.294128,306.915192 407.016266,306.086060 411.764618,305.101318 
	C412.012787,311.280975 409.754456,314.507690 404.565277,315.847961 
	C398.443787,317.429016 398.191406,317.584106 401.463074,322.907349 
	C404.548065,327.926819 401.540924,331.129639 398.982330,335.196228 
	C395.702393,331.398285 393.943024,327.269043 391.945099,323.337189 
	C390.353699,320.205322 388.665100,318.754150 384.910522,320.087433 
	C381.099548,321.440765 376.853851,321.461853 372.651855,323.544159 
	C378.269226,329.135071 384.486725,333.282593 390.269409,337.936096 
	C395.257843,341.950439 395.260925,345.739594 389.591003,348.564758 
	C387.981873,349.366577 387.509003,350.105927 386.983459,351.514893 
	C383.854370,359.903381 378.611359,363.638214 370.549866,363.372986 
	C363.519348,363.141663 357.080566,358.082062 355.096619,351.229858 
	C353.070862,344.233215 355.775391,337.733978 362.745697,332.803162 
	C363.263123,332.437134 363.709473,331.970673 364.166962,331.570038 
	C363.454987,329.062561 361.269775,328.188934 359.679657,326.830322 
	C354.891388,322.739288 354.850006,322.644806 359.002136,317.935791 
	C359.656128,317.194092 359.979431,316.160858 360.167328,315.806396 
	C364.712402,316.763977 366.334412,320.380035 370.312805,321.384338 
	C371.773895,314.013702 377.297241,311.428894 384.394653,311.033936 
	C377.917725,300.917145 384.102295,292.128815 385.611389,283.091248 
	C386.512421,277.695007 387.608032,272.322388 388.877563,267.001526 
	C389.291199,265.268036 388.866180,262.788025 391.927307,262.240479 
M377.674957,340.881378 
	C372.621124,337.326385 367.934692,337.377197 365.371490,341.014740 
	C362.875000,344.557617 364.101959,349.501007 368.215302,352.233490 
	C371.351013,354.316498 374.559418,354.356903 377.360931,351.778687 
	C380.712799,348.694000 380.497864,345.095123 377.674957,340.881378 
z"/>
<path fill="#000000" opacity="1.000000" stroke="none" 
	d="
M162.548492,141.572815 
	C167.305130,136.606079 167.534882,135.473175 164.679550,130.990494 
	C161.201965,136.313858 157.213226,140.883301 150.379593,141.331421 
	C142.217056,141.866684 135.643921,137.318527 133.866089,129.924438 
	C132.012909,122.216927 136.090820,114.162384 143.488754,111.177048 
	C145.978363,110.172409 148.141586,109.751656 149.665298,106.576195 
	C152.043976,101.619041 155.484543,101.878975 159.098587,106.389137 
	C163.363800,111.711906 167.559769,117.091614 171.710495,122.504341 
	C178.582245,131.465424 177.809570,139.115112 169.337585,146.556427 
	C165.787643,149.674500 161.757568,151.968613 157.175568,153.157745 
	C154.608047,153.824066 152.748169,153.310791 152.111786,150.153549 
	C151.544113,147.337051 152.098221,145.776306 155.069748,145.141983 
	C157.683731,144.583969 160.072708,143.357346 162.548492,141.572815 
M157.937729,126.499077 
	C159.348831,122.921150 157.763077,120.273384 155.004074,118.330551 
	C152.450180,116.532150 149.603134,116.913483 146.985580,118.445099 
	C144.090591,120.139038 142.937393,122.775116 143.372192,126.061722 
	C143.766937,129.045319 145.630219,130.933884 148.443954,131.544571 
	C152.516037,132.428391 155.554535,130.679169 157.937729,126.499077 
z"/>
<path fill="#000000" opacity="1.000000" stroke="none" 
	d="
M118.395805,364.523529 
	C115.475395,361.382294 116.000893,358.805450 118.471985,355.988220 
	C121.635887,352.381134 124.434296,348.464966 127.168327,343.536499 
	C121.176781,344.914734 115.747787,345.986694 110.430275,347.460785 
	C107.743652,348.205597 106.463852,347.178223 105.218437,345.101807 
	C103.987495,343.049500 102.663773,341.255585 104.562729,338.808441 
	C107.910408,334.494324 111.082352,330.043823 114.785370,325.031128 
	C109.313728,325.078796 104.931480,326.926605 100.416176,327.954559 
	C94.232147,329.362366 93.513290,329.035736 91.064621,322.627319 
	C92.125717,320.820343 94.094460,320.812653 95.804932,320.382019 
	C103.847527,318.357361 111.950447,316.554718 119.934959,314.325806 
	C123.095665,313.443481 124.145241,315.298279 125.405571,317.249756 
	C126.734169,319.306946 128.482971,321.206451 126.338905,323.938141 
	C123.384865,327.701752 120.709930,331.684448 117.452835,336.217041 
	C122.318146,336.636322 126.042389,334.808716 129.900589,333.991119 
	C133.199326,333.292145 135.962158,332.440460 138.464661,336.274841 
	C140.942795,340.071869 139.876205,342.433899 137.502518,345.483551 
	C132.706589,351.645233 128.246262,358.067902 123.637558,364.375671 
	C122.140266,366.424957 120.608444,368.412537 118.395805,364.523529 
z"/>
<path fill="#000000" opacity="1.000000" stroke="none" 
	d="
M76.145271,188.864365 
	C79.958527,179.339661 83.827370,170.188629 87.644356,161.160263 
	C95.860962,163.247925 95.870644,163.251938 93.082069,169.988113 
	C91.308823,174.271652 89.501648,178.541138 87.743652,182.735886 
	C93.389542,186.983063 94.268585,186.784073 96.957878,180.935135 
	C98.613579,177.334167 100.280754,173.738480 101.897392,170.238693 
	C109.498672,171.762970 109.800865,172.283981 107.130325,178.504425 
	C105.565399,182.149582 104.024109,185.804886 102.511093,189.364090 
	C108.800140,193.854065 109.800972,193.638535 112.628212,187.336655 
	C114.127335,183.995132 115.666428,180.658890 116.915863,177.221542 
	C118.128586,173.885208 120.071121,173.546341 123.094093,174.795731 
	C126.123558,176.047821 125.945000,177.865051 124.850525,180.354721 
	C121.567459,187.822845 118.409637,195.345978 115.180794,202.838104 
	C114.507301,204.400864 113.701546,206.194778 111.564552,205.237289 
	C99.757545,199.947037 87.401657,195.865768 76.145271,188.864365 
z"/>
<path fill="#000000" opacity="1.000000" stroke="none" 
	d="
M228.310211,387.168396 
	C231.532120,387.787720 234.198364,388.717743 236.739105,389.992096 
	C243.819183,393.543304 244.019424,394.843353 238.249557,400.934509 
	C233.571426,398.383759 229.104782,394.916290 223.237335,395.303314 
	C221.250671,395.434387 218.892624,395.024811 218.160919,397.453339 
	C217.346054,400.157715 219.658630,401.308716 221.528854,402.279816 
	C224.775085,403.965393 228.215393,405.276398 231.466568,406.953339 
	C236.966232,409.790009 239.038666,413.612335 238.269531,419.019714 
	C237.589737,423.799133 233.556641,428.197021 228.388550,429.043793 
	C221.660126,430.146210 215.104019,429.274872 209.017868,425.970551 
	C206.402283,424.550476 204.852661,422.910522 206.783478,419.605286 
	C208.562210,416.560394 210.330383,416.189667 213.173721,418.104767 
	C216.132996,420.097961 219.504807,421.012909 223.128616,420.780548 
	C225.056381,420.656952 226.870361,420.234436 227.468521,418.118774 
	C228.113541,415.837402 226.515930,414.793854 224.780212,413.963226 
	C221.477814,412.382812 218.116104,410.919495 214.862671,409.245026 
	C208.532806,405.987152 206.563721,402.226807 207.726105,395.983765 
	C208.619995,391.182678 213.495560,387.188843 219.442612,386.753387 
	C222.240448,386.548553 225.080261,386.916595 228.310211,387.168396 
z"/>
<path fill="#000000" opacity="1.000000" stroke="none" 
	d="
M402.080139,219.282227 
	C398.179138,219.759079 394.685791,220.023590 391.279175,220.715149 
	C388.491791,221.281036 386.908661,220.336395 386.812134,217.662140 
	C386.721313,215.144882 384.906128,211.535980 389.367950,210.848816 
	C401.333832,209.005951 413.345764,207.459137 425.302094,205.559738 
	C428.978485,204.975708 430.126373,206.507904 430.315369,209.732468 
	C430.486511,212.652435 430.950897,215.466110 426.460052,215.496429 
	C423.694702,215.515106 420.934875,216.354355 417.830658,216.883453 
	C418.891418,219.786758 420.098053,222.463562 420.846069,225.262939 
	C422.565460,231.697510 419.422272,238.020630 413.122223,240.086365 
	C406.802765,242.158417 400.159943,242.877243 393.536530,243.426834 
	C389.524323,243.759735 390.283264,240.369125 389.838684,238.221954 
	C389.381683,236.014816 389.614288,233.962128 392.798584,233.630615 
	C396.588013,233.236084 400.321686,232.334625 404.096985,231.769485 
	C410.373352,230.829987 412.148407,229.288757 411.779388,224.890305 
	C411.410950,220.498871 408.923889,218.984253 402.080139,219.282227 
z"/>
<path fill="#000000" opacity="1.000000" stroke="none" 
	d="
M253.010834,103.220619 
	C240.730835,112.970825 224.469879,107.894875 222.036362,93.724319 
	C221.003296,87.708656 223.314880,82.480064 228.132935,78.791504 
	C234.057190,74.256058 240.665222,73.721031 247.359970,77.038116 
	C252.749969,79.708725 255.199951,84.442612 255.817856,90.277977 
	C256.048828,92.459175 254.850494,93.061455 252.984299,93.531960 
	C249.205322,94.484718 245.388168,94.272247 241.572327,94.327232 
	C238.932297,94.365273 236.269485,94.264374 233.977921,95.953705 
	C236.441406,100.092873 240.684219,101.014069 245.826080,98.588455 
	C250.067108,96.587791 252.586639,98.070305 253.010834,103.220619 
M235.612228,83.707802 
	C234.250977,84.806473 232.400665,85.600311 232.985214,88.331482 
	C237.093826,88.597771 241.229019,89.641045 245.340073,87.088501 
	C243.279388,82.796402 239.939957,82.783310 235.612228,83.707802 
z"/>
<path fill="#000000" opacity="1.000000" stroke="none" 
	d="
M350.217529,387.952972 
	C343.932861,389.023560 338.593811,388.129456 334.229523,383.621429 
	C331.824097,381.136780 331.325348,379.251343 334.645172,376.871735 
	C339.594482,373.324036 344.182343,369.272034 349.083252,365.305695 
	C343.908508,362.854797 339.900787,364.411133 336.593353,369.935730 
	C335.737274,371.365662 335.287994,372.974426 333.193115,373.087067 
	C328.714691,373.327789 327.083008,371.029022 328.880829,366.892944 
	C332.209442,359.235199 342.076385,353.517273 349.500824,354.943634 
	C356.759949,356.338196 361.474854,361.060608 363.049072,368.513397 
	C364.356567,374.703400 360.910614,381.890228 354.639984,385.856201 
	C353.387482,386.648407 351.958435,387.161591 350.217529,387.952972 
M350.614227,379.055420 
	C353.414276,376.956207 355.250092,374.542938 353.381195,370.458527 
	C349.707489,372.845062 346.334076,375.037720 343.732452,378.446930 
	C345.671021,380.958984 347.805450,380.404724 350.614227,379.055420 
z"/>
<path fill="#000000" opacity="1.000000" stroke="none" 
	d="
M283.327576,101.272217 
	C287.819946,106.965485 287.111206,109.221527 280.395081,110.121887 
	C265.013824,112.183914 254.287827,100.594543 258.670410,87.785263 
	C261.476227,79.584457 270.011200,75.291771 279.206482,77.666580 
	C288.009186,79.939995 292.853149,87.385094 291.326050,96.060333 
	C290.901001,98.474991 289.708344,98.951294 287.495758,98.593773 
	C281.161316,97.570229 274.803619,96.690811 268.298615,95.731659 
	C269.894989,101.722115 273.022797,102.788918 283.327576,101.272217 
M270.806641,86.295609 
	C269.451752,87.724236 268.620789,89.057693 271.450928,89.686218 
	C274.894867,90.451057 278.343689,91.171570 282.014862,90.899246 
	C280.099579,85.197845 277.261841,83.937691 270.806641,86.295609 
z"/>
<path fill="#000000" opacity="1.000000" stroke="none" 
	d="
M123.835190,173.197083 
	C117.940132,168.550293 112.324219,164.116913 106.674683,159.726807 
	C101.468071,155.680908 101.345734,152.555634 107.099037,149.466217 
	C109.393059,148.234390 109.974617,146.726303 110.669693,144.793060 
	C114.242302,134.856461 122.973763,131.772934 131.727036,137.589127 
	C136.151947,140.529312 140.276642,143.924438 144.498962,147.163544 
	C145.262924,147.749588 145.841888,148.576797 146.389130,149.166473 
	C146.233902,151.250885 144.780716,152.310333 143.937927,153.704193 
	C142.321472,156.377563 140.315826,156.799881 137.784348,154.752563 
	C134.809418,152.346603 131.749817,150.042953 128.684525,147.751678 
	C124.276352,144.456573 120.981476,144.413879 118.656227,147.546600 
	C116.215584,150.834793 116.985229,154.629730 120.947578,157.904572 
	C123.896271,160.341629 126.992065,162.600830 130.025269,164.935440 
	C131.886169,166.367767 133.426804,167.960938 131.241562,170.216553 
	C129.323746,172.196136 128.456985,176.787567 123.835190,173.197083 
z"/>
<path fill="#000000" opacity="1.000000" stroke="none" 
	d="
M171.829575,388.298523 
	C176.033112,378.917633 182.496094,375.223724 191.267624,376.855988 
	C199.196411,378.331390 205.720718,384.904968 206.281052,392.148285 
	C206.818436,399.094910 204.076401,404.619659 198.110229,408.088196 
	C191.124115,412.149719 184.197250,410.700256 178.036819,406.171051 
	C172.205811,401.884003 169.696381,396.005707 171.829575,388.298523 
M181.429276,392.086182 
	C180.886093,396.076202 181.856537,399.223938 185.932755,400.940735 
	C189.230301,402.329498 191.851685,401.142426 193.920273,398.813843 
	C196.344391,396.085052 197.466080,392.841431 195.590561,389.261139 
	C194.255112,386.711884 192.093124,385.398346 189.192993,385.346649 
	C185.028336,385.272461 183.047455,387.960297 181.429276,392.086182 
z"/>
<path fill="#000000" opacity="1.000000" stroke="none" 
	d="
M99.234657,240.909943 
	C101.193665,237.289490 101.190140,233.838943 99.728737,230.508087 
	C98.104988,226.807220 100.944168,225.609268 103.141739,224.491455 
	C105.771759,223.153671 106.513794,225.774521 107.340050,227.452835 
	C111.036217,234.960541 108.771942,245.390778 102.395882,250.678680 
	C96.599457,255.485870 88.471138,255.524658 82.102936,250.775528 
	C77.068420,247.020981 74.506561,239.595856 76.092918,233.356369 
	C77.998909,225.859695 82.710960,221.402924 89.631256,220.551498 
	C95.555672,219.822601 96.547775,220.614731 96.239578,226.470123 
	C95.953812,231.899536 94.643059,237.293137 95.666344,242.742828 
	C97.492065,243.517166 98.115547,242.070587 99.234657,240.909943 
M84.616150,240.664978 
	C85.483284,241.826508 86.199699,243.239182 88.355179,242.736084 
	C88.449516,238.615097 90.384521,234.601974 89.180595,230.277496 
	C84.003960,231.807526 82.659386,234.632294 84.616150,240.664978 
z"/>
<path fill="#000000" opacity="1.000000" stroke="none" 
	d="
M373.881958,158.385590 
	C370.462463,155.378830 370.501740,158.684799 370.520966,160.175323 
	C370.566071,163.673813 372.163666,166.980682 375.221802,168.476883 
	C379.846100,170.739334 379.459320,173.657547 377.583710,177.300186 
	C370.946289,177.549728 364.640289,171.634048 362.272308,162.963547 
	C360.308716,155.773758 363.423462,148.657639 370.210022,144.828598 
	C377.774841,140.560440 387.106323,142.910461 392.103424,150.342209 
	C397.437103,158.274597 396.120819,167.227371 388.955627,172.992981 
	C386.601898,174.886993 385.024597,174.849655 383.324280,172.235352 
	C380.337433,167.642975 377.157104,163.176392 373.881958,158.385590 
M381.262024,151.625916 
	C380.124298,151.425766 378.943207,151.067108 378.006744,152.858032 
	C380.043457,156.285828 382.100708,159.945572 385.136932,163.084991 
	C388.497803,158.081573 387.691376,155.545029 381.262024,151.625916 
z"/>
<path fill="#000000" opacity="1.000000" stroke="none" 
	d="
M83.824036,301.735657 
	C81.456818,291.449341 84.220268,286.409943 93.930481,282.989960 
	C97.376839,281.776093 100.911522,280.815369 104.388985,279.687012 
	C110.265770,277.780090 112.423035,279.020325 112.370979,285.156128 
	C112.349602,287.676544 113.040466,289.296448 114.453377,291.178497 
	C116.370415,293.732056 117.232506,296.871307 117.283142,300.067749 
	C117.356354,304.689606 115.224991,308.069916 110.822197,309.719971 
	C106.421822,311.369141 103.063835,309.566376 100.334160,306.156769 
	C98.857376,304.312134 98.063942,302.121246 97.220093,299.939819 
	C96.461960,297.979980 96.401306,295.700134 94.794853,294.084595 
	C89.963013,297.370819 90.161446,298.792114 96.777390,308.988190 
	C92.997879,315.450684 91.360054,315.555176 87.385010,309.287079 
	C85.974930,307.063538 85.058174,304.527161 83.824036,301.735657 
M106.192726,291.389771 
	C104.683334,290.514557 102.835052,289.743530 101.905663,291.663330 
	C100.806030,293.934753 102.470543,296.073975 103.412506,298.098145 
	C104.211586,299.815338 105.538788,301.284393 107.691772,300.127808 
	C109.540619,299.134613 109.938126,297.456390 109.160416,295.470367 
	C108.610931,294.067139 107.938347,292.779755 106.192726,291.389771 
z"/>
<path fill="#000000" opacity="1.000000" stroke="none" 
	d="
M197.068939,93.156662 
	C194.802872,95.994041 195.331100,98.685638 196.315582,101.465866 
	C197.313400,104.283722 198.187836,107.146164 199.078552,110.000870 
	C200.841812,115.652016 200.034409,116.873154 194.199234,117.976784 
	C192.202682,118.354408 191.100647,117.886665 190.471634,115.855911 
	C187.675293,106.828033 184.780029,97.830795 181.884689,88.709526 
	C185.009933,86.952682 187.661972,84.940605 190.986679,86.331917 
	C192.872025,87.120903 193.327988,85.617699 194.260162,84.920074 
	C204.001434,77.629738 213.327652,80.397301 217.333069,91.906822 
	C218.861115,96.297676 219.913391,100.857346 221.511444,105.219574 
	C222.797119,108.729034 220.820190,109.580383 218.183212,110.418587 
	C215.431015,111.293411 212.997131,111.982460 211.934662,108.130493 
	C210.874390,104.286438 209.631973,100.488770 208.357483,96.708511 
	C206.067596,89.916473 203.394684,89.016449 197.068939,93.156662 
z"/>
<path fill="#000000" opacity="1.000000" stroke="none" 
	d="
M376.028015,129.041931 
	C374.145081,127.413284 372.515747,126.025620 370.712250,124.489639 
	C363.431763,130.575424 357.947144,137.937775 351.640686,144.492966 
	C349.062408,147.172943 347.237061,147.669464 344.209900,145.001129 
	C341.098511,142.258560 340.954559,140.374329 343.850586,137.393036 
	C350.194580,130.862198 356.231995,124.033554 362.362610,117.361366 
	C360.649109,114.172806 358.021057,112.587402 355.851807,110.609581 
	C353.390594,108.365593 354.339172,106.759972 356.182190,104.801338 
	C358.069397,102.795700 359.591431,102.016747 361.967560,104.278175 
	C368.598145,110.588737 375.356903,116.767464 382.164856,122.887268 
	C384.534180,125.017097 386.015137,126.692528 383.164398,129.773697 
	C380.323090,132.844635 378.407837,131.731812 376.028015,129.041931 
z"/>
<path fill="#000000" opacity="1.000000" stroke="none" 
	d="
M145.959290,383.024963 
	C148.879211,378.834076 151.879715,381.181671 155.439667,383.539520 
	C159.763077,377.168701 163.993362,370.935120 168.012558,365.012573 
	C170.488068,365.027954 171.690765,366.341614 173.163467,367.051666 
	C176.316925,368.572144 176.611938,370.596436 174.552078,373.395294 
	C172.089737,376.741028 169.730408,380.182861 167.604416,383.748779 
	C166.155518,386.179047 163.156998,388.385895 166.677505,391.874664 
	C168.256973,393.439941 164.328781,398.234924 161.985840,397.440491 
	C159.810211,396.702759 158.693558,397.422394 157.214264,398.747894 
	C151.328064,404.022003 143.859299,403.401062 138.835236,397.343109 
	C137.769119,396.057556 136.439148,394.602203 138.298920,393.081329 
	C139.852966,391.810486 141.217972,389.514038 143.828674,391.049683 
	C144.681641,391.551392 145.399658,392.277039 146.224548,392.833282 
	C147.560608,393.734192 148.796448,393.431702 149.747269,392.242676 
	C150.950638,390.737762 149.926361,389.800323 148.713913,389.043304 
	C146.686432,387.777466 144.551758,386.603577 145.915314,383.295441 
	C145.994843,382.989899 145.959290,383.024963 145.959290,383.024963 
z"/>
<path fill="#000000" opacity="1.000000" stroke="none" 
	d="
M411.746490,197.132034 
	C410.991028,199.264160 410.313416,200.954483 408.341919,202.026428 
	C404.583435,200.145432 401.393951,198.401077 403.386505,192.773880 
	C404.699493,189.065826 402.164673,186.030441 398.492737,184.654572 
	C394.911163,183.312546 389.980957,185.337738 388.212738,188.836105 
	C386.273560,192.672699 387.518158,195.855576 390.667511,198.519775 
	C391.862732,199.530869 394.041138,199.425949 394.217529,201.601685 
	C394.395599,203.798279 394.478882,206.176666 392.646576,207.613754 
	C390.573364,209.239746 388.495300,207.697418 386.705780,206.591293 
	C380.136841,202.531006 376.905121,192.452423 379.664581,184.982101 
	C382.418030,177.528076 389.632385,173.483414 398.032318,174.684357 
	C405.136139,175.699997 411.968414,183.840210 412.292908,191.804718 
	C412.359741,193.444962 412.047302,195.100677 411.746490,197.132034 
z"/>
<path fill="#000000" opacity="1.000000" stroke="none" 
	d="
M146.009705,382.969849 
	C144.946976,383.687317 143.786179,385.094238 142.504929,384.188446 
	C139.932632,382.370026 138.339935,383.273651 136.732880,385.448059 
	C134.766266,388.108978 132.980148,386.590210 131.428345,384.929901 
	C129.801941,383.189728 126.113945,381.891937 129.211761,378.677551 
	C131.726013,376.068756 131.250427,374.182556 128.632126,372.195862 
	C126.301041,370.427124 127.474548,368.820374 128.954208,367.206940 
	C130.417892,365.610901 131.974777,364.213226 133.917419,366.319641 
	C136.953461,369.611572 139.046555,367.884918 141.163956,365.272003 
	C142.421112,363.720703 143.823151,362.287781 145.121155,360.768402 
	C146.918503,358.664551 147.355362,356.444733 144.640106,354.904877 
	C140.939301,352.806152 142.873413,350.201019 144.103760,348.143951 
	C145.752243,345.387787 147.948975,347.382935 149.687790,348.419556 
	C157.303116,352.959564 158.533936,360.557373 152.817810,367.313904 
	C150.465073,370.094940 148.051743,372.824738 145.523621,375.742126 
	C147.071289,377.936615 148.601791,380.085510 146.085297,382.723145 
	C145.959290,383.024963 145.994843,382.989899 146.009705,382.969849 
z"/>
<path fill="#000000" opacity="1.000000" stroke="none" 
	d="
M301.546936,414.582336 
	C300.645569,413.367371 299.643127,413.230316 298.671906,413.611969 
	C295.601471,414.818512 293.440247,414.827454 292.240051,410.887360 
	C291.019226,406.879547 294.077667,406.979828 296.091644,405.914948 
	C296.667999,405.610229 297.259003,405.333160 297.900116,405.015228 
	C297.972534,401.476105 296.218201,398.533478 295.315643,395.380707 
	C294.349884,392.007172 292.544220,390.156586 288.687958,391.984406 
	C285.612335,393.442108 284.535309,390.616058 283.382843,388.804230 
	C281.946594,386.546143 284.043549,385.566772 285.573090,384.617737 
	C293.606171,379.633453 301.406921,382.441559 304.509583,391.402405 
	C305.380402,393.917511 306.306732,396.415009 307.108032,398.952026 
	C307.606659,400.530823 308.246704,401.866516 310.202393,401.303284 
	C312.475586,400.648590 313.145569,402.022064 313.713379,403.740448 
	C314.291779,405.490845 315.171814,407.303925 313.106293,408.638641 
	C311.651367,409.578796 310.848724,410.822174 311.536041,412.396667 
	C313.552338,417.015442 310.255310,417.615540 307.159668,418.771332 
	C303.192169,420.252563 302.710632,417.325623 301.546936,414.582336 
z"/>
<path fill="#000000" opacity="1.000000" stroke="none" 
	d="
M313.891144,373.642395 
	C315.451752,372.671295 316.778381,371.984344 318.064697,371.228790 
	C320.446411,369.829773 321.957214,370.448212 323.197784,372.930023 
	C326.537384,379.610992 330.063812,386.198364 333.492920,392.834839 
	C336.111298,397.902283 334.930573,401.042725 329.247955,401.286133 
	C325.936523,401.427979 324.560577,402.906494 322.805969,404.841003 
	C321.691681,406.069489 320.361725,407.069763 318.403168,407.295624 
	C315.615082,403.615540 312.838043,400.406860 318.634155,396.470642 
	C321.744385,394.358429 320.853363,390.669220 319.415405,387.352753 
	C317.474091,382.875275 314.012970,379.040894 313.891144,373.642395 
z"/>
<path fill="#000000" opacity="1.000000" stroke="none" 
	d="
M315.852051,97.662842 
	C307.942322,96.621254 306.604401,97.413712 303.898193,104.480751 
	C303.008026,106.805374 302.120667,109.131363 301.264313,111.468559 
	C300.223511,114.309067 299.732819,117.210854 295.156464,115.438972 
	C291.047852,113.848206 290.204468,111.943489 291.808838,108.015663 
	C294.444580,101.562996 296.730286,94.967621 299.178101,88.437866 
	C301.132507,83.224289 303.050598,82.174316 307.492310,85.729881 
	C310.485016,88.125511 313.266937,88.759567 316.690094,88.815224 
	C317.596008,88.829956 318.491364,89.493668 319.720215,89.992905 
	C319.155090,92.946030 319.153015,95.918770 315.852051,97.662842 
z"/>
<path fill="#000000" opacity="1.000000" stroke="none" 
	d="
M93.031570,276.299896 
	C89.624451,276.655090 86.673485,277.086517 83.706894,277.317413 
	C77.943016,277.766052 75.697166,274.633026 78.125816,268.989502 
	C78.698608,267.658478 78.601204,267.139740 78.081062,266.073761 
	C74.212257,258.145020 74.236107,258.133392 83.211967,257.228180 
	C88.015320,266.469849 89.082817,266.998688 99.789825,265.438324 
	C99.953735,265.414459 100.114555,265.369781 100.278244,265.343811 
	C109.276566,263.914948 109.347702,263.977386 109.378578,273.581757 
	C104.299461,275.488647 98.750999,275.142395 93.031570,276.299896 
z"/>
<path fill="#000000" opacity="1.000000" stroke="none" 
	d="
M178.133011,123.917587 
	C174.214081,116.568306 170.770523,109.370590 166.773514,102.494576 
	C164.280243,98.205406 165.166000,95.861275 169.622635,94.351212 
	C170.551514,94.036476 171.419525,93.542137 173.013199,92.810150 
	C177.635880,101.646286 182.386642,110.329407 186.707672,119.221344 
	C188.060699,122.005699 182.843384,125.060471 178.133011,123.917587 
z"/>
<path fill="#000000" opacity="1.000000" stroke="none" 
	d="
M271.529266,394.293640 
	C270.503357,389.738007 272.074707,387.025726 276.371124,386.457672 
	C280.148987,385.958191 282.493225,388.171509 283.058228,391.651398 
	C283.632172,395.186218 281.247925,397.254486 278.091095,398.056824 
	C275.140198,398.806793 272.960724,397.399841 271.529266,394.293640 
z"/>
<path fill="#000000" opacity="1.000000" stroke="none" 
	d="
M318.573181,112.873947 
	C321.770477,114.311195 323.581329,116.336731 322.799469,119.624374 
	C322.235474,121.995918 320.805939,123.817757 318.180939,124.257416 
	C315.461700,124.712845 313.306854,123.785385 311.747955,121.498817 
	C310.505157,119.675919 310.487335,117.821678 311.498596,115.878777 
	C312.939453,113.110550 315.287750,112.388695 318.573181,112.873947 
z"/>
<path fill="#000000" opacity="1.000000" stroke="none" 
	d="
M168.798309,83.093857 
	C170.833450,87.702919 169.736588,90.969109 165.953598,92.094536 
	C162.994400,92.974892 160.271210,92.575233 158.944519,89.288544 
	C157.724625,86.266479 159.593475,82.677856 162.866226,81.890076 
	C164.784286,81.428391 166.823990,81.283882 168.798309,83.093857 
z"/>
</svg>