<?xml version="1.0" encoding="UTF-8"?>
<svg xmlns="http://www.w3.org/2000/svg" xmlns:xlink="http://www.w3.org/1999/xlink" width="496px" height="496px" viewBox="0 0 496 496" version="1.1">
<g id="surface1">
<path style=" stroke:none;fill-rule:nonzero;fill:rgb(0%,0%,0%);fill-opacity:1;" d="M 412.816406 266.210938 C 417.835938 267.210938 422.640625 268.261719 427.476562 269.121094 C 429.464844 269.472656 430.023438 270.34375 429.613281 272.261719 C 427.796875 280.761719 426.007812 289.273438 424.3125 297.800781 C 423.925781 299.746094 423.128906 300.335938 421.1875 299.867188 C 414.84375 298.332031 415.757812 299.683594 416.96875 293.371094 C 417.800781 289.019531 418.707031 284.683594 419.6875 280.363281 C 420.125 278.433594 419.515625 277.585938 417.578125 277.199219 C 411.988281 276.078125 412.015625 276.019531 410.855469 281.699219 C 410.097656 285.410156 409.25 289.101562 408.53125 292.816406 C 408.28125 294.117188 407.824219 294.503906 406.421875 294.296875 C 400.394531 293.410156 400.417969 293.472656 401.640625 287.535156 C 402.511719 283.289062 403.285156 279.023438 404.113281 274.71875 C 401.617188 273.722656 399.203125 273.476562 396.859375 272.984375 C 395.242188 272.644531 395.304688 274.054688 395.105469 275.003906 C 393.980469 280.363281 392.929688 285.742188 391.800781 291.101562 C 391.09375 294.449219 391.054688 294.433594 387.742188 293.777344 C 387.199219 293.667969 386.640625 293.644531 385.585938 293.527344 C 387.285156 296.816406 388.761719 299.8125 390.367188 302.738281 C 393.515625 308.496094 393.542969 308.472656 399.878906 307.09375 C 403.1875 306.375 406.5 305.683594 409.816406 304.996094 C 410.507812 304.855469 411.210938 304.496094 412.339844 305.222656 C 411.089844 308.191406 410.050781 311.441406 407.957031 313.980469 C 406.808594 315.371094 404.328125 314.980469 402.460938 315.445312 C 400.9375 315.828125 399.277344 315.785156 397.679688 316.898438 C 398.835938 319.046875 399.753906 321.203125 401.066406 323.085938 C 402.605469 325.292969 402.652344 327.285156 401.273438 329.527344 C 400.234375 331.214844 399.75 333.21875 398.523438 334.8125 C 397.449219 334.410156 397.265625 333.464844 396.859375 332.707031 C 394.65625 328.578125 392.445312 324.457031 390.3125 320.292969 C 389.589844 318.875 388.824219 318.324219 387.09375 318.757812 C 381.804688 320.089844 376.457031 321.195312 371.082031 322.398438 C 371.367188 323.761719 372.410156 324.195312 373.191406 324.808594 C 379.726562 329.9375 386.261719 335.070312 392.863281 340.117188 C 394.335938 341.246094 394.339844 342.167969 393.183594 343.445312 C 392.265625 344.460938 391.441406 345.566406 390.621094 346.664062 C 389.621094 347.996094 388.675781 349.382812 386.730469 346.84375 C 386.699219 352.558594 384.308594 356.410156 380.523438 359.492188 C 377.800781 361.714844 374.621094 362.84375 371.144531 362.894531 C 363.84375 363 356.144531 356.859375 354.457031 349.726562 C 352.648438 342.074219 356.410156 335.464844 365.40625 330.953125 C 362.585938 328.742188 359.894531 326.625 357.195312 324.519531 C 354.6875 322.5625 354.683594 322.566406 356.65625 320.09375 C 356.707031 320.03125 356.757812 319.96875 356.808594 319.90625 C 360.667969 315.011719 360.667969 315.011719 365.65625 318.882812 C 366.859375 319.816406 368.042969 320.769531 369.359375 321.808594 C 370.84375 319.945312 371.546875 317.871094 372.347656 315.898438 C 373.257812 313.652344 374.605469 312.433594 377.101562 312.160156 C 379.636719 311.886719 382.121094 311.175781 384.835938 310.613281 C 383.867188 307.375 381.910156 304.871094 380.5625 302.078125 C 380.113281 301.148438 379.402344 300.273438 380.070312 299.15625 C 384.242188 292.171875 384.761719 284.15625 386.441406 276.472656 C 387.386719 272.148438 388.375 267.828125 389.160156 263.472656 C 389.480469 261.6875 390.214844 261.476562 391.800781 261.820312 C 398.726562 263.332031 405.675781 264.738281 412.816406 266.210938 M 373.78125 353.316406 C 377.128906 352.207031 379.285156 350.042969 379.632812 346.429688 C 380.019531 342.421875 377.738281 339.953125 374.523438 338.164062 C 371.132812 336.285156 367.296875 337.054688 364.980469 339.972656 C 362.363281 343.273438 362.453125 346.941406 365.285156 350.003906 C 367.460938 352.351562 370.058594 353.785156 373.78125 353.316406 Z M 373.78125 353.316406 "/>
<path style=" stroke:none;fill-rule:nonzero;fill:rgb(0%,0%,0%);fill-opacity:1;" d="M 156.6875 152.460938 C 155.199219 152.566406 153.476562 153.75 152.699219 152.371094 C 151.613281 150.433594 151.445312 148.050781 151.667969 145.804688 C 151.761719 144.878906 152.992188 145.054688 153.738281 144.929688 C 158.050781 144.210938 161.648438 142.210938 164.511719 138.929688 C 167.167969 135.886719 167 132.457031 163.917969 129.253906 C 162.058594 134.609375 158.460938 138.175781 153.214844 140.003906 C 149.828125 141.183594 146.425781 141.171875 143.019531 139.996094 C 136.898438 137.886719 132.746094 131.3125 133.046875 124.132812 C 133.347656 116.886719 138.964844 111.601562 148.976562 109.289062 C 147.304688 107.449219 148.292969 106.269531 149.941406 105.28125 C 150.007812 105.242188 150.066406 105.183594 150.132812 105.136719 C 154.882812 101.449219 154.847656 101.476562 158.453125 106.160156 C 162.636719 111.59375 166.902344 116.964844 171.121094 122.371094 C 177.628906 130.71875 176.957031 138.6875 169.039062 145.628906 C 165.492188 148.738281 161.480469 151.136719 156.6875 152.460938 M 157.730469 125.941406 C 159.230469 120.476562 155.199219 115.683594 149.691406 116.386719 C 145.3125 116.949219 141.886719 121.410156 142.519531 125.726562 C 143.101562 129.671875 146.917969 132.355469 151.101562 131.5625 C 154.148438 130.984375 156.269531 129.066406 157.730469 125.941406 Z M 157.730469 125.941406 "/>
<path style=" stroke:none;fill-rule:nonzero;fill:rgb(0%,0%,0%);fill-opacity:1;" d="M 130.285156 353.566406 C 126.992188 358.042969 123.804688 362.382812 120.199219 367.300781 C 118.492188 364.613281 116.988281 362.394531 115.664062 360.070312 C 115.21875 359.289062 116.046875 358.585938 116.519531 357.945312 C 119.746094 353.609375 122.976562 349.277344 126.203125 344.941406 C 126.671875 344.3125 127.242188 343.730469 127.457031 342.472656 C 122.84375 343.566406 118.488281 344.601562 114.132812 345.640625 C 113.660156 345.75 113.199219 345.890625 112.730469 346.007812 C 106.773438 347.519531 106.8125 347.492188 103.488281 342.390625 C 102.691406 341.164062 102.753906 340.324219 103.625 339.179688 C 107.523438 334.058594 111.339844 328.871094 115.488281 323.300781 C 109.171875 324.855469 103.300781 326.1875 97.5 327.78125 C 95.175781 328.421875 93.546875 328.425781 92.441406 325.921875 C 91.8125 324.488281 90.757812 323.246094 89.640625 321.535156 C 93.617188 320.492188 97.160156 319.539062 100.71875 318.636719 C 107.125 317.015625 113.554688 315.476562 119.941406 313.78125 C 121.617188 313.335938 122.609375 313.691406 123.597656 315.101562 C 127.5 320.675781 127.527344 320.644531 123.574219 326.042969 C 121.0625 329.480469 118.582031 332.9375 115.894531 336.648438 C 117.9375 336.839844 119.488281 336.148438 121.0625 335.792969 C 125.070312 334.878906 129.0625 333.890625 133.039062 332.867188 C 134.484375 332.492188 135.417969 332.84375 136.335938 334.078125 C 140.476562 339.652344 140.515625 339.628906 136.410156 345.238281 C 134.410156 347.972656 132.398438 350.699219 130.285156 353.566406 Z M 130.285156 353.566406 "/>
<path style=" stroke:none;fill-rule:nonzero;fill:rgb(0%,0%,0%);fill-opacity:1;" d="M 78.203125 181.882812 C 80.988281 175.417969 83.75 169.144531 86.378906 162.8125 C 87.167969 160.917969 88.027344 160.453125 90.011719 161.332031 C 95.015625 163.542969 95.058594 163.453125 92.832031 168.550781 C 91.023438 172.6875 89.25 176.839844 87.375 180.949219 C 86.660156 182.511719 86.851562 183.328125 88.5625 184.082031 C 94.097656 186.515625 94.066406 186.589844 96.457031 181.058594 C 97.894531 177.730469 99.371094 174.414062 100.75 171.058594 C 101.332031 169.632812 102.0625 169.324219 103.53125 169.914062 C 108.925781 172.074219 108.933594 172.027344 106.625 177.375 C 104.90625 181.359375 103.210938 185.351562 101.480469 189.398438 C 104.03125 190.921875 106.589844 191.863281 109.023438 192.863281 C 110.042969 192.464844 110.144531 191.589844 110.457031 190.875 C 112.761719 185.636719 115.089844 180.40625 117.316406 175.132812 C 117.992188 173.53125 118.605469 172.851562 120.511719 173.699219 C 125.710938 176 125.773438 175.914062 123.507812 181.167969 C 120.285156 188.648438 116.996094 196.097656 113.816406 203.59375 C 113.171875 205.117188 112.421875 205.222656 111.03125 204.617188 C 99.792969 199.722656 88.539062 194.867188 77.269531 190.050781 C 75.679688 189.371094 75.144531 188.550781 75.980469 186.914062 C 76.78125 185.335938 77.421875 183.675781 78.203125 181.882812 Z M 78.203125 181.882812 "/>
<path style=" stroke:none;fill-rule:nonzero;fill:rgb(0%,0%,0%);fill-opacity:1;" d="M 216.277344 428.09375 C 212.695312 427.191406 209.511719 425.902344 206.582031 423.957031 C 205.195312 423.035156 204.628906 422.152344 205.777344 420.648438 C 206.847656 419.246094 207.164062 417.035156 208.71875 416.320312 C 210.535156 415.480469 211.761719 417.660156 213.296875 418.394531 C 215.964844 419.675781 218.734375 420.386719 221.632812 420.722656 C 222.9375 420.875 224.222656 420.660156 225.414062 420.128906 C 226.667969 419.570312 227.480469 418.625 227.621094 417.1875 C 227.765625 415.722656 227.113281 414.742188 225.910156 413.988281 C 224.050781 412.824219 222.015625 412.046875 220.019531 411.1875 C 217.351562 410.039062 214.667969 408.910156 212.226562 407.324219 C 205.042969 402.667969 205.320312 392.675781 212.746094 388.359375 C 217.503906 385.597656 222.554688 385.667969 227.753906 386.785156 C 232.476562 387.796875 236.816406 389.59375 240.710938 392.464844 C 242.023438 393.4375 242.496094 394.414062 241.292969 395.851562 C 240.070312 397.316406 239.304688 399.140625 237.964844 400.429688 C 236.984375 400.457031 236.582031 399.757812 236.019531 399.339844 C 231.910156 396.25 227.367188 394.378906 222.15625 394.382812 C 220.054688 394.386719 217.914062 394.625 217.246094 397 C 216.507812 399.613281 218.519531 400.792969 220.441406 401.726562 C 224.066406 403.484375 227.8125 404.996094 231.390625 406.839844 C 234.589844 408.484375 236.957031 410.953125 237.570312 414.714844 C 238.75 421.960938 233.066406 428.40625 225.125 428.808594 C 222.214844 428.957031 219.320312 428.839844 216.277344 428.09375 Z M 216.277344 428.09375 "/>
<path style=" stroke:none;fill-rule:nonzero;fill:rgb(0%,0%,0%);fill-opacity:1;" d="M 400.640625 218.566406 C 396.59375 219.128906 392.75 219.597656 388.9375 220.25 C 387.421875 220.511719 386.835938 219.953125 386.632812 218.613281 C 386.539062 217.976562 386.460938 217.335938 386.359375 216.699219 C 385.265625 209.691406 385.074219 211.191406 391.261719 210.191406 C 403.039062 208.292969 414.867188 206.742188 426.660156 204.957031 C 428.402344 204.691406 429.050781 205.292969 429.242188 206.863281 C 429.457031 208.621094 429.617188 210.394531 429.972656 212.125 C 430.277344 213.597656 429.75 214.199219 428.339844 214.40625 C 424.59375 214.953125 420.859375 215.5625 417.121094 216.15625 C 416.828125 216.203125 416.542969 216.308594 415.9375 216.472656 C 418.863281 219.636719 420.449219 223.167969 420.570312 227.261719 C 420.753906 233.570312 417.515625 238.226562 411.410156 239.847656 C 405.015625 241.546875 398.382812 241.988281 391.871094 243.070312 C 390.859375 243.238281 390.367188 242.777344 390.222656 241.804688 C 389.914062 239.734375 389.621094 237.660156 389.242188 235.601562 C 388.960938 234.085938 389.6875 233.617188 391.039062 233.433594 C 395.746094 232.789062 400.445312 232.078125 405.148438 231.394531 C 410.234375 230.652344 412.195312 228.386719 411.601562 223.949219 C 411.066406 219.964844 407.722656 217.660156 403.25 218.199219 C 402.449219 218.292969 401.652344 218.425781 400.640625 218.566406 Z M 400.640625 218.566406 "/>
<path style=" stroke:none;fill-rule:nonzero;fill:rgb(0%,0%,0%);fill-opacity:1;" d="M 342.863281 387.710938 C 338.507812 386.914062 335.261719 384.742188 332.585938 381.496094 C 331.082031 379.664062 331.417969 378.589844 333.234375 377.222656 C 338.0625 373.585938 342.753906 369.765625 347.492188 366.011719 C 348.039062 365.574219 348.757812 365.246094 348.777344 364.230469 C 347.253906 362.832031 345.339844 362.632812 343.445312 363.167969 C 339.683594 364.234375 336.765625 366.480469 335.492188 370.285156 C 334.925781 371.980469 334.304688 372.53125 332.433594 372.246094 C 326.878906 371.394531 326.382812 370.554688 329 365.4375 C 332.792969 358.007812 342.347656 353.136719 349.757812 354.847656 C 362.066406 357.691406 366.675781 372.675781 358.007812 381.941406 C 354.011719 386.210938 349.109375 388.546875 342.863281 387.710938 M 351.800781 370.058594 C 348.496094 372.6875 345.191406 375.316406 341.839844 377.984375 C 344.792969 380.402344 347.511719 380.609375 350.234375 378.800781 C 353.214844 376.824219 354.664062 373.632812 353.890625 370.773438 C 353.621094 369.777344 353.226562 369.066406 351.800781 370.058594 Z M 351.800781 370.058594 "/>
<path style=" stroke:none;fill-rule:nonzero;fill:rgb(0%,0%,0%);fill-opacity:1;" d="M 391.511719 169.144531 C 390.191406 170.816406 388.695312 172.035156 387.121094 173.175781 C 385.640625 174.25 384.613281 174.070312 383.5625 172.472656 C 380.367188 167.625 377.054688 162.851562 373.765625 158.058594 C 373.136719 157.140625 372.636719 156.097656 371.511719 155.363281 C 369.796875 157.152344 369.363281 159.285156 369.992188 161.558594 C 370.988281 165.144531 373.066406 167.988281 376.605469 169.414062 C 378.210938 170.058594 378.753906 170.921875 378.207031 172.519531 C 378.128906 172.746094 378.082031 172.988281 378.03125 173.222656 C 377.011719 178.015625 376.664062 178.1875 372.261719 176.042969 C 364.050781 172.042969 359.25 160.628906 362.425781 152.65625 C 364.878906 146.5 371.488281 142.109375 378.023438 142.296875 C 385.011719 142.496094 391.269531 147.355469 393.878906 154.597656 C 395.757812 159.820312 394.839844 164.589844 391.511719 169.144531 M 376.964844 152.402344 C 379.480469 156.089844 382 159.78125 384.675781 163.707031 C 386.898438 160.964844 387.464844 158.410156 386.1875 155.664062 C 384.882812 152.851562 382.699219 151.027344 379.480469 150.847656 C 378.457031 150.792969 377.207031 150.648438 376.964844 152.402344 Z M 376.964844 152.402344 "/>
<path style=" stroke:none;fill-rule:nonzero;fill:rgb(0%,0%,0%);fill-opacity:1;" d="M 100.300781 225.757812 C 104.023438 222.660156 105.054688 222.769531 106.730469 227.132812 C 109.628906 234.6875 108.761719 241.921875 103.644531 248.292969 C 99.78125 253.101562 92.683594 254.792969 86.640625 252.78125 C 80.546875 250.75 75.933594 245 75.46875 238.859375 C 74.773438 229.683594 79.246094 222.597656 87.097656 220.550781 C 89.199219 220 91.324219 219.71875 93.550781 220.054688 C 95.222656 220.308594 95.683594 221.054688 95.578125 222.621094 C 95.15625 228.808594 94.796875 235.003906 94.425781 241.195312 C 94.382812 241.898438 94.117188 242.625 94.632812 243.515625 C 97.246094 243.226562 98.714844 241.480469 99.632812 239.289062 C 100.976562 236.097656 101.09375 232.773438 99.257812 229.742188 C 98.160156 227.933594 98.375 226.8125 100.300781 225.757812 M 84.703125 241.480469 C 85.605469 242.375 86.496094 243.292969 88.273438 243.191406 C 88.621094 238.480469 88.960938 233.84375 89.304688 229.191406 C 83.800781 229.03125 80.890625 236.839844 84.703125 241.480469 Z M 84.703125 241.480469 "/>
<path style=" stroke:none;fill-rule:nonzero;fill:rgb(0%,0%,0%);fill-opacity:1;" d="M 236.226562 99.082031 C 240.207031 100.183594 243.777344 99.824219 246.875 97.222656 C 247.902344 96.363281 248.671875 96.386719 249.566406 97.292969 C 250.128906 97.867188 250.765625 98.371094 251.347656 98.925781 C 253.820312 101.300781 253.882812 101.632812 251.25 103.71875 C 243.285156 110.035156 226.296875 108.898438 222.4375 96.203125 C 219.640625 87.015625 224.542969 77.898438 233.757812 75.371094 C 243.558594 72.683594 252.535156 77.742188 254.699219 87.175781 C 254.789062 87.566406 254.871094 87.964844 254.914062 88.363281 C 255.386719 92.761719 255.207031 92.921875 250.792969 93.164062 C 245.484375 93.453125 240.179688 93.8125 234.878906 94.171875 C 233.9375 94.238281 232.953125 94.238281 231.984375 94.929688 C 232.542969 97.097656 234.234375 98.117188 236.226562 99.082031 M 241.152344 82.59375 C 236.015625 81.261719 231.789062 83.664062 231.453125 88.453125 C 236.125 88.296875 240.75 88.246094 245.4375 87.390625 C 244.933594 84.753906 243.417969 83.558594 241.152344 82.59375 Z M 241.152344 82.59375 "/>
<path style=" stroke:none;fill-rule:nonzero;fill:rgb(0%,0%,0%);fill-opacity:1;" d="M 260.890625 82.679688 C 265.699219 77.125 271.589844 75.417969 278.445312 77.160156 C 284.722656 78.753906 289.019531 82.535156 290.496094 89.035156 C 291.050781 91.488281 290.929688 93.988281 290.464844 96.476562 C 290.191406 97.941406 289.59375 98.449219 287.980469 98.152344 C 282.199219 97.09375 276.386719 96.199219 270.585938 95.269531 C 269.496094 95.097656 268.402344 94.679688 267.164062 95.078125 C 266.765625 97.253906 268.128906 98.582031 269.585938 99.664062 C 272.972656 102.171875 276.789062 102.410156 280.609375 100.953125 C 282.242188 100.332031 283.015625 100.609375 283.960938 101.984375 C 287.179688 106.660156 286.882812 107.855469 281.21875 109.09375 C 273.730469 110.726562 266.847656 109.21875 261.449219 103.539062 C 256.128906 97.941406 256.027344 89.769531 260.890625 82.679688 M 271.433594 84.621094 C 269.710938 85.457031 268.394531 86.636719 267.835938 88.820312 C 272.472656 89.765625 276.992188 90.578125 281.632812 91.0625 C 282.0625 89.570312 281.613281 88.476562 280.984375 87.4375 C 279.347656 84.742188 275.585938 83.550781 271.433594 84.621094 Z M 271.433594 84.621094 "/>
<path style=" stroke:none;fill-rule:nonzero;fill:rgb(0%,0%,0%);fill-opacity:1;" d="M 111.847656 140.984375 C 117.480469 133.191406 124.289062 132.105469 131.933594 137.738281 C 136.28125 140.941406 140.507812 144.316406 144.84375 147.539062 C 146.109375 148.480469 146.269531 149.308594 145.261719 150.503906 C 144.171875 151.800781 143.117188 153.132812 142.15625 154.527344 C 141.132812 156.011719 140.226562 156.316406 138.667969 155.042969 C 134.980469 152.039062 131.164062 149.1875 127.351562 146.339844 C 123.65625 143.582031 120.476562 143.6875 118.140625 146.535156 C 115.425781 149.839844 115.667969 153.613281 119.121094 156.550781 C 122.804688 159.6875 126.667969 162.613281 130.535156 165.519531 C 132.015625 166.632812 132.199219 167.445312 131.015625 169.003906 C 126.683594 174.707031 126.738281 174.761719 121.167969 170.496094 C 115.210938 165.933594 109.304688 161.308594 103.304688 156.808594 C 101.769531 155.65625 101.574219 154.6875 102.828125 153.285156 C 103.632812 152.382812 104.402344 151.433594 105.054688 150.421875 C 106.058594 148.855469 107.097656 147.664062 109.167969 149.378906 C 109.75 146.339844 110.144531 143.53125 111.847656 140.984375 Z M 111.847656 140.984375 "/>
<path style=" stroke:none;fill-rule:nonzero;fill:rgb(0%,0%,0%);fill-opacity:1;" d="M 115.453125 293.984375 C 116.410156 296.382812 116.617188 298.691406 116.433594 301.054688 C 116.125 305.0625 113.699219 308.082031 109.910156 309.152344 C 105.992188 310.257812 102.515625 309.078125 100.101562 305.777344 C 97.96875 302.859375 96.917969 299.457031 95.789062 296.089844 C 95.414062 294.972656 95.324219 293.707031 94.367188 292.859375 C 91.632812 293.703125 90.300781 295.984375 90.910156 298.820312 C 91.601562 302.054688 92.996094 304.953125 95.472656 307.179688 C 96.695312 308.277344 96.582031 308.992188 95.523438 310.117188 C 91.558594 314.34375 90.914062 314.363281 87.542969 309.621094 C 84.636719 305.527344 82.75 301.023438 82.664062 295.921875 C 82.554688 289.632812 84.890625 285.984375 90.902344 283.671875 C 95.640625 281.855469 100.507812 280.363281 105.355469 278.835938 C 110.035156 277.363281 109.472656 276.476562 111.171875 281.832031 C 111.320312 282.296875 111.4375 282.769531 111.632812 283.210938 C 112.402344 284.984375 112.65625 286.546875 109.640625 287.058594 C 112.765625 288.6875 114.398438 290.996094 115.453125 293.984375 M 100.960938 290.492188 C 100.304688 293.632812 102.144531 296.109375 103.242188 298.761719 C 103.730469 299.945312 104.871094 300.585938 106.207031 300.390625 C 107.695312 300.171875 108.753906 299.277344 109.015625 297.769531 C 109.429688 295.390625 108.648438 293.296875 106.96875 291.617188 C 105.382812 290.035156 103.503906 289.273438 100.960938 290.492188 Z M 100.960938 290.492188 "/>
<path style=" stroke:none;fill-rule:nonzero;fill:rgb(0%,0%,0%);fill-opacity:1;" d="M 191.636719 409.429688 C 184.027344 409.878906 177.878906 407.390625 173.554688 401.308594 C 169.695312 395.882812 169.929688 388.726562 173.742188 383.101562 C 177.484375 377.582031 184.023438 374.980469 190.730469 376.527344 C 196.855469 377.941406 201.789062 381.144531 204.390625 387.0625 C 208.195312 395.722656 203.09375 407.78125 191.636719 409.429688 M 185.917969 400.941406 C 189.175781 401.964844 191.816406 400.867188 193.839844 398.347656 C 196.164062 395.457031 196.988281 392.136719 195.363281 388.648438 C 194.046875 385.828125 191.5 384.671875 188.472656 384.589844 C 184.53125 384.480469 181.535156 387.253906 180.488281 391.894531 C 179.59375 395.839844 181.390625 399.019531 185.917969 400.941406 Z M 185.917969 400.941406 "/>
<path style=" stroke:none;fill-rule:nonzero;fill:rgb(0%,0%,0%);fill-opacity:1;" d="M 191.0625 86.933594 C 192.269531 86.90625 192.621094 85.859375 193.308594 85.234375 C 197.109375 81.769531 201.53125 80.164062 206.632812 80.976562 C 210.359375 81.570312 213.210938 83.683594 214.855469 87.09375 C 217.917969 93.441406 219.214844 100.394531 221.460938 107.027344 C 221.722656 107.800781 221.5 108.464844 220.601562 108.730469 C 220.371094 108.800781 220.160156 108.925781 219.933594 109.007812 C 212.925781 111.550781 212.921875 111.550781 210.652344 104.390625 C 209.582031 101.011719 208.632812 97.589844 207.445312 94.25 C 206.210938 90.777344 203.820312 89.3125 200.867188 89.929688 C 196.875 90.761719 194.765625 93.160156 194.847656 96.898438 C 194.925781 100.515625 196.660156 103.71875 197.5625 107.128906 C 198.117188 109.230469 198.824219 111.292969 199.496094 113.359375 C 199.90625 114.621094 199.4375 115.261719 198.242188 115.75 C 191.117188 118.652344 191.136719 118.671875 188.859375 111.40625 C 186.695312 104.484375 184.492188 97.578125 182.332031 90.652344 C 181.386719 87.621094 181.417969 87.609375 184.503906 86.652344 C 185.660156 86.296875 186.851562 86.023438 187.957031 85.550781 C 189.484375 84.894531 190.421875 85.328125 191.0625 86.933594 Z M 191.0625 86.933594 "/>
<path style=" stroke:none;fill-rule:nonzero;fill:rgb(0%,0%,0%);fill-opacity:1;" d="M 350.347656 144.46875 C 349.792969 145.066406 349.3125 145.507812 348.914062 146.015625 C 348.03125 147.136719 347.246094 147.136719 346.101562 146.214844 C 339.820312 141.121094 339.8125 141.164062 345.296875 135.226562 C 350.5 129.597656 355.628906 123.894531 360.882812 118.316406 C 362.253906 116.859375 362.289062 115.894531 360.746094 114.597656 C 358.585938 112.785156 356.589844 110.773438 354.488281 108.890625 C 353.445312 107.957031 353.28125 107.132812 354.34375 106.0625 C 359.460938 100.933594 357.542969 100.589844 362.960938 105.519531 C 369.703125 111.660156 376.359375 117.894531 383.128906 124 C 384.753906 125.464844 384.890625 126.515625 383.273438 128.089844 C 378.773438 132.464844 380.203125 132.550781 375.617188 128.375 C 373.78125 126.707031 372.132812 124.804688 369.78125 123.335938 C 363.320312 130.363281 356.890625 137.351562 350.347656 144.46875 Z M 350.347656 144.46875 "/>
<path style=" stroke:none;fill-rule:nonzero;fill:rgb(0%,0%,0%);fill-opacity:1;" d="M 392.847656 183.917969 C 387.425781 186.136719 385.589844 189.601562 387.125 194.367188 C 387.84375 196.59375 389.230469 198.277344 391.484375 198.851562 C 393.550781 199.378906 394.042969 200.421875 393.523438 202.351562 C 393.257812 203.347656 393.171875 204.417969 393.148438 205.460938 C 393.101562 207.882812 391.894531 208.242188 389.835938 207.578125 C 383.335938 205.480469 380.210938 200.480469 378.753906 194.3125 C 376.601562 185.203125 381.367188 177.179688 390.207031 174.503906 C 398.3125 172.046875 406.957031 176.863281 410.335938 185.742188 C 412.207031 190.65625 412.480469 195.464844 409.421875 200.085938 C 408.484375 201.503906 407.535156 202.027344 406.171875 200.636719 C 405.777344 200.234375 405.339844 199.863281 404.875 199.550781 C 402.578125 198.007812 401.296875 196.628906 402.835938 193.34375 C 404.898438 188.945312 401.042969 183.777344 396.15625 183.582031 C 395.121094 183.542969 394.074219 183.753906 392.847656 183.917969 Z M 392.847656 183.917969 "/>
<path style=" stroke:none;fill-rule:nonzero;fill:rgb(0%,0%,0%);fill-opacity:1;" d="M 140.335938 390.8125 C 141.011719 390.378906 141.554688 390.050781 142.476562 389.492188 C 143.238281 390.394531 143.894531 391.4375 144.800781 392.183594 C 146.054688 393.214844 147.523438 393.5625 149.039062 392.542969 C 151.089844 391.160156 151.09375 390.027344 149.039062 388.644531 C 148.96875 388.601562 148.898438 388.566406 148.832031 388.519531 C 144.039062 385.3125 144.074219 385.335938 147.589844 380.71875 C 148.371094 379.695312 149.019531 379.644531 149.988281 380.292969 C 151.523438 381.320312 153.089844 382.296875 154.558594 383.242188 C 155.808594 382.925781 156.117188 381.90625 156.628906 381.136719 C 160.039062 376.050781 163.441406 370.957031 166.757812 365.8125 C 167.695312 364.351562 168.542969 363.957031 170.007812 365.113281 C 171.269531 366.105469 172.632812 366.996094 174.042969 367.761719 C 175.675781 368.652344 175.960938 369.472656 174.816406 371.136719 C 171.386719 376.109375 168.140625 381.207031 164.851562 386.273438 C 164.335938 387.066406 163.632812 387.777344 163.515625 388.769531 C 166.902344 392.265625 166.859375 392.234375 164.171875 396.160156 C 162.058594 399.242188 160.855469 395.382812 159.125 395.632812 C 158.34375 395.785156 158.0625 396.511719 157.632812 397.070312 C 153.789062 402.042969 148.296875 403.179688 142.828125 400.09375 C 141.988281 399.621094 141.179688 399.078125 140.398438 398.507812 C 135.910156 395.226562 135.886719 394.140625 140.335938 390.8125 Z M 140.335938 390.8125 "/>
<path style=" stroke:none;fill-rule:nonzero;fill:rgb(0%,0%,0%);fill-opacity:1;" d="M 127.320312 370.679688 C 126.476562 369.851562 126.652344 369.222656 127.21875 368.449219 C 130.574219 363.839844 130.601562 363.824219 134.949219 367.390625 C 135.5625 367.894531 136.214844 368.351562 137.117188 369.027344 C 140.011719 365.773438 142.921875 362.667969 145.636719 359.394531 C 147.066406 357.667969 146.65625 355.757812 144.8125 354.359375 C 143.992188 353.738281 143.015625 353.316406 141.96875 352.722656 C 142.097656 350.726562 143.191406 349 143.851562 347.144531 C 144.210938 346.144531 145.023438 346.3125 145.878906 346.527344 C 155.285156 348.851562 158.683594 359.03125 152.445312 366.316406 C 150.246094 368.886719 148.023438 371.453125 145.691406 373.902344 C 144.542969 375.105469 144.355469 376.035156 145.777344 377.027344 C 147.652344 378.335938 147.488281 379.5 145.882812 381.054688 C 142.878906 383.96875 142.960938 384.050781 139.015625 381.542969 C 137.792969 382.84375 136.488281 384.140625 135.292969 385.535156 C 134.527344 386.429688 133.832031 386.734375 132.878906 385.859375 C 131.269531 384.390625 129.644531 382.9375 128.023438 381.484375 C 127.277344 380.816406 127.234375 380.132812 127.933594 379.40625 C 128.042969 379.289062 128.148438 379.167969 128.25 379.042969 C 131.820312 374.617188 131.820312 374.617188 127.320312 370.679688 Z M 127.320312 370.679688 "/>
<path style=" stroke:none;fill-rule:nonzero;fill:rgb(0%,0%,0%);fill-opacity:1;" d="M 299.269531 383.621094 C 301.734375 385.449219 302.84375 387.957031 303.753906 390.5625 C 304.789062 393.53125 305.789062 396.515625 306.6875 399.527344 C 307.1875 401.207031 308.027344 401.828125 309.683594 401.046875 C 311.398438 400.234375 312.425781 400.746094 312.828125 402.617188 C 312.976562 403.324219 313.199219 404.03125 313.519531 404.675781 C 314.523438 406.703125 313.925781 407.878906 311.722656 408.269531 C 309.910156 408.585938 309.925781 409.574219 310.445312 411.074219 C 312.199219 416.136719 312.152344 416.152344 307.15625 417.839844 C 306.925781 417.917969 306.703125 418.011719 306.472656 418.089844 C 303.113281 419.203125 303.113281 419.203125 301.996094 415.824219 C 301.742188 415.058594 301.4375 414.308594 301.203125 413.539062 C 300.875 412.445312 300.164062 412.199219 299.148438 412.515625 C 298.761719 412.636719 298.371094 412.734375 297.984375 412.847656 C 292.726562 414.371094 292.761719 414.363281 291.433594 408.878906 C 291.144531 407.683594 291.402344 407.058594 292.578125 406.710938 C 293.890625 406.324219 295.15625 405.757812 296.480469 405.421875 C 297.945312 405.050781 298.199219 404.300781 297.722656 402.945312 C 296.648438 399.902344 295.699219 396.816406 294.65625 393.765625 C 293.296875 389.796875 291.164062 389.128906 287.703125 391.542969 C 287.316406 391.816406 286.921875 392.078125 286.484375 392.375 C 284.804688 391.210938 283.890625 389.445312 282.578125 388.054688 C 281.785156 387.214844 282.222656 386.421875 282.953125 385.753906 C 286.136719 382.832031 294.277344 379.972656 299.269531 383.621094 Z M 299.269531 383.621094 "/>
<path style=" stroke:none;fill-rule:nonzero;fill:rgb(0%,0%,0%);fill-opacity:1;" d="M 333.386719 393.683594 C 335.394531 397.820312 336.152344 397.164062 331.515625 399.558594 C 331.015625 399.820312 330.488281 400.042969 330.015625 400.34375 C 328.191406 401.511719 326.542969 402.058594 325.769531 398.46875 C 324.386719 401.820312 322.710938 404.046875 320.277344 405.710938 C 318.605469 406.851562 317.394531 407.109375 316.652344 404.84375 C 316.628906 404.765625 316.582031 404.699219 316.546875 404.625 C 315.761719 403.039062 314.40625 401.476562 314.339844 399.859375 C 314.261719 398.019531 316.808594 397.984375 317.996094 396.835938 C 320.457031 394.449219 321.28125 391.84375 319.753906 388.5 C 317.847656 384.324219 315.730469 380.234375 313.507812 376.214844 C 312.421875 374.257812 312.652344 373.183594 314.746094 372.351562 C 316.085938 371.820312 317.359375 371.074219 318.578125 370.296875 C 320.195312 369.265625 321.074219 369.675781 321.921875 371.363281 C 325.652344 378.785156 329.5 386.144531 333.386719 393.683594 Z M 333.386719 393.683594 "/>
<path style=" stroke:none;fill-rule:nonzero;fill:rgb(0%,0%,0%);fill-opacity:1;" d="M 78.585938 277.117188 C 76.492188 274.472656 77.207031 271.445312 76.8125 268.761719 C 77.605469 267.882812 78.78125 268.355469 79.359375 267.316406 C 77.503906 265.339844 76.121094 263.054688 75.320312 260.363281 C 74.6875 258.226562 75.367188 257.347656 77.441406 257.21875 C 77.761719 257.195312 78.082031 257.125 78.402344 257.097656 C 79.921875 256.964844 81.574219 256.402344 82.925781 256.824219 C 84.683594 257.371094 83.777344 259.515625 84.332031 260.890625 C 85.644531 264.152344 87.742188 265.964844 91.304688 265.742188 C 96.121094 265.441406 100.9375 264.929688 105.707031 264.191406 C 107.785156 263.867188 108.296875 264.722656 108.535156 266.351562 C 108.605469 266.832031 108.621094 267.316406 108.660156 267.796875 C 109.082031 273.339844 109.09375 273.441406 103.742188 274.140625 C 95.4375 275.226562 87.113281 276.15625 78.585938 277.117188 Z M 78.585938 277.117188 "/>
<path style=" stroke:none;fill-rule:nonzero;fill:rgb(0%,0%,0%);fill-opacity:1;" d="M 292.21875 105.789062 C 294.847656 98.742188 297.445312 91.886719 299.921875 84.988281 C 300.527344 83.300781 301.328125 82.824219 302.960938 83.582031 C 304.050781 84.09375 305.195312 84.515625 306.355469 84.84375 C 308.234375 85.378906 309.769531 86.066406 308.519531 88.859375 C 311.4375 88.359375 313.992188 87.734375 316.628906 88.460938 C 319.488281 89.246094 319.667969 89.351562 318.554688 92.175781 C 317.878906 93.878906 317.5625 95.742188 316.507812 97.214844 C 315.621094 97.46875 315.003906 97 314.335938 96.761719 C 309.703125 95.121094 306.210938 96.539062 304.3125 101.085938 C 302.609375 105.171875 301.035156 109.320312 299.605469 113.507812 C 298.921875 115.515625 298.0625 116.121094 296.113281 115.082031 C 294.984375 114.480469 293.710938 114.15625 292.507812 113.695312 C 289.582031 112.578125 289.585938 112.578125 290.765625 109.570312 C 291.238281 108.371094 291.6875 107.164062 292.21875 105.789062 Z M 292.21875 105.789062 "/>
<path style=" stroke:none;fill-rule:nonzero;fill:rgb(0%,0%,0%);fill-opacity:1;" d="M 185.867188 118.28125 C 187.023438 119.988281 186.722656 121.023438 184.917969 121.78125 C 183.285156 122.464844 181.734375 123.355469 180.195312 124.234375 C 179.105469 124.851562 178.457031 124.636719 177.878906 123.53125 C 173.503906 115.167969 169.105469 106.816406 164.679688 98.476562 C 163.96875 97.132812 164.417969 96.414062 165.667969 95.832031 C 167.203125 95.113281 168.769531 94.414062 170.175781 93.488281 C 171.828125 92.402344 172.652344 92.800781 173.515625 94.5 C 177.542969 102.40625 181.683594 110.257812 185.867188 118.28125 Z M 185.867188 118.28125 "/>
<path style=" stroke:none;fill-rule:nonzero;fill:rgb(0%,0%,0%);fill-opacity:1;" d="M 282.394531 391.074219 C 282.28125 395.140625 280.140625 397.410156 276.554688 397.5 C 273.445312 397.578125 270.976562 395.378906 270.675781 392.265625 C 270.367188 389.035156 272.550781 386.292969 275.84375 385.777344 C 278.875 385.304688 281.316406 387.21875 282.394531 391.074219 Z M 282.394531 391.074219 "/>
<path style=" stroke:none;fill-rule:nonzero;fill:rgb(0%,0%,0%);fill-opacity:1;" d="M 311.21875 115.207031 C 313.300781 112.277344 315.632812 111.425781 318.328125 112.476562 C 321.035156 113.53125 322.558594 115.964844 322.238281 118.730469 C 321.945312 121.25 319.816406 123.378906 317.140625 123.820312 C 312.574219 124.578125 309.453125 120.195312 311.21875 115.207031 Z M 311.21875 115.207031 "/>
<path style=" stroke:none;fill-rule:nonzero;fill:rgb(0%,0%,0%);fill-opacity:1;" d="M 165.789062 91.367188 C 162.574219 92.367188 160.59375 91.902344 159.136719 89.90625 C 157.746094 88.003906 157.671875 86.019531 158.914062 84.03125 C 160.292969 81.828125 163.179688 80.652344 165.632812 81.183594 C 168.007812 81.699219 169.292969 83.320312 169.550781 85.554688 C 169.863281 88.285156 168.351562 90.121094 165.789062 91.367188 Z M 165.789062 91.367188 "/>
</g>
</svg>
